<svg width="12" height="10" viewBox="0 0 12 10" fill="none" xmlns="http://www.w3.org/2000/svg">
<path d="M3.72847 9.53965C7.99752 9.53965 10.3328 6.24435 10.3328 3.39168C10.3328 3.29947 10.3328 3.20594 10.3286 3.11372C10.7833 2.80711 11.1757 2.4275 11.4874 1.99268C11.0627 2.16713 10.6127 2.2821 10.1518 2.33387C10.6372 2.06358 11.0008 1.6383 11.1749 1.13707C10.7189 1.38877 10.2197 1.56545 9.69934 1.65939C9.34949 1.31229 8.88654 1.08235 8.38221 1.00518C7.87787 0.928013 7.36029 1.00792 6.90964 1.23254C6.45899 1.45715 6.10042 1.81394 5.88947 2.24762C5.67852 2.68131 5.62697 3.16769 5.7428 3.63143C4.81994 3.58833 3.91711 3.36498 3.09288 2.97589C2.26864 2.58681 1.54139 2.04066 0.958317 1.37288C0.662312 1.84914 0.571977 2.41251 0.705657 2.94858C0.839337 3.48464 1.18701 3.95321 1.67808 4.25914C1.31009 4.24749 0.950201 4.15544 0.627427 3.99041V4.02005C0.628061 4.51897 0.813593 5.00239 1.15266 5.38859C1.49173 5.77479 1.96354 6.04008 2.48833 6.13963C2.28914 6.19075 2.08337 6.21623 1.87675 6.21537C1.73109 6.21578 1.58572 6.20321 1.44263 6.17783C1.59096 6.60732 1.87977 6.98282 2.26862 7.25176C2.65747 7.5207 3.12688 7.6696 3.6111 7.67761C2.78851 8.27949 1.77239 8.60593 0.726411 8.60435C0.542103 8.60507 0.357923 8.59517 0.174927 8.57471C1.23654 9.20522 2.46945 9.54001 3.72847 9.53965Z" fill="black"/>
</svg>
